<?xml version="1.0" encoding="utf-8"?>
<!-- Generator: Adobe Illustrator 23.0.0, SVG Export Plug-In . SVG Version: 6.00 Build 0)  -->
<svg version="1.1" id="Layer_1" xmlns="http://www.w3.org/2000/svg" xmlns:xlink="http://www.w3.org/1999/xlink" x="0px" y="0px"
	 width="1661.4px" height="488.9px" viewBox="0 0 1661.4 488.9" style="enable-background:new 0 0 1661.4 488.9;"
	 xml:space="preserve">
<style type="text/css">
	.st0{fill:none;stroke:#E8E8EA;stroke-miterlimit:10;}
	.st1{fill:none;stroke:#E8E8EA;stroke-miterlimit:10;stroke-dasharray:3.7479,3.7479;}
	.st2{fill:url(#SVGID_1_);}
	.st3{fill:#7CA3B8;}
	.st4{fill:#598398;}
	.st5{fill-rule:evenodd;clip-rule:evenodd;fill:#F07C9B;}
	.st6{fill-rule:evenodd;clip-rule:evenodd;fill:#FFFFFE;stroke:#DDDDDB;stroke-miterlimit:10;}
	.st7{fill:#F7A77C;}
	.st8{fill-rule:evenodd;clip-rule:evenodd;fill:#598398;}
	.st9{fill:url(#SVGID_2_);}
</style>
<g>
	<g>
		<path class="st0" d="M-9.8,242.1c0,0.6,0.1,1.3,0.2,1.9"/>
		<path class="st1" d="M-8.6,247.6c5.6,14.1,29.9,19.3,49.1,19.7c180.5,3.7,383.3-60,482.4-143.2c70.5-59.2,65.4-104,46.1-115.8
			c-22.2-13.5-129,7.8-181,94s13.4,162.5,62,180.9c48.6,18.4,104.8,17.7,156.6,7.5c180.4-35.8,308.8-176.1,485-224.6
			c31-8.5,64.3-14.1,96-7.6c31.6,6.5,60.8,27.5,65.1,54.9c3.5,22.4-9.6,44-23.7,63.1c-58.8,79.6-142.8,145.8-189.1,231.1
			c-8.6,15.8-15.7,34.6-6.4,50.2c13.1,21.8,48.8,23.2,77.4,19.7c152.6-19,264.9-74.7,415.8-147.1"/>
		<path class="st0" d="M1528.1,329.6c0.6-0.3,1.1-0.5,1.7-0.8"/>
	</g>
</g>
<g id="XMLID_373_">
	<g>
		
			<linearGradient id="SVGID_1_" gradientUnits="userSpaceOnUse" x1="1218.1315" y1="269.7174" x2="1222.0316" y2="284.6332" gradientTransform="matrix(-0.9512 0.3087 -0.3087 -0.9512 2819.3408 173.3681)">
			<stop  offset="0" style="stop-color:#A7E4EF"/>
			<stop  offset="0.2671" style="stop-color:#C1EAF3"/>
			<stop  offset="0.751" style="stop-color:#EAF3FA"/>
			<stop  offset="1" style="stop-color:#FAF6FD"/>
		</linearGradient>
		<path class="st2" d="M1585,277l-2.3-2.8c1.9,1.2,26.5,20.3-12.3,6.2c-8.7,5.4-13.5,12-13.2,12c0.3,0.1,1.3,4.3,2.4,4.7
			c1.1,0.4,1.6,0.7,3-0.1c1.4-0.8,11.3-5.2,17-8.2c5.7-3.1,8.7-5.6,8.7-5.6L1585,277z"/>
		<path class="st3" d="M1584.1,279.5c1.6,2.5,3.5,4.1,4.3,3.6s0.1-2.9-1.4-5.4c-0.4-0.6-0.8-1.2-1.2-1.7c-1.2-1.5-2.5-2.3-3-1.9
			C1581.9,274.7,1582.5,277.1,1584.1,279.5z"/>
		<path class="st4" d="M1582.5,274.4c0.6,0.2,1.5,0.9,2.5,2c0.4,0.5,0.8,1,1.2,1.7c1.4,2.2,2.1,4.4,1.6,5.2
			c-0.9-0.2-2.4-1.6-3.7-3.6C1582.6,277.3,1582,275.1,1582.5,274.4z"/>
	</g>
	<polygon id="XMLID_397_" class="st5" points="1569.4,302.1 1607.7,279.6 1532.8,273.8 1519.1,281.9 	"/>
	<polygon id="XMLID_396_" class="st5" points="1508.9,335.3 1528.6,323.7 1495.8,330.2 1488.7,334.4 	"/>
	<path id="XMLID_395_" class="st6" d="M1627.7,258.4L1502,332.3c-11.8,6.9,30.2,11.1,62.1-7.9l77.6-46.1c5.7-3.4,16.4-16.1,13-21.8
		l0,0C1651.8,252,1631.6,256.2,1627.7,258.4z"/>
	<path class="st7" d="M1548.9,328.4c13-4.7,104.1-62.3,104.8-63.4c-2.8,5.4-8.3,11.2-11.9,13.4l-77.6,46.1c-27,16-61.3,15.5-64,10.8
		C1517,335.7,1536.7,332.8,1548.9,328.4z"/>
	<path id="XMLID_394_" class="st8" d="M1648.3,254.5c-1.8,0-3.9,0.1-6,0.3l-9,5.3l1.4,2.4L1648.3,254.5z"/>
	<g>
		
			<linearGradient id="SVGID_2_" gradientUnits="userSpaceOnUse" x1="1212.7795" y1="234.5583" x2="1215.8756" y2="246.3997" gradientTransform="matrix(-0.9512 0.3087 -0.3087 -0.9512 2819.3408 173.3681)">
			<stop  offset="0" style="stop-color:#A7E4EF"/>
			<stop  offset="0.2671" style="stop-color:#C1EAF3"/>
			<stop  offset="0.751" style="stop-color:#EAF3FA"/>
			<stop  offset="1" style="stop-color:#FAF6FD"/>
		</linearGradient>
		<path class="st9" d="M1603.6,310.6l-2.3-2.8c0,0-3.6,0.8-12.3,6.2c-8.7,5.4-13.5,12-13.2,12c0.3,0.1,1.3,4.3,2.4,4.7
			c1.1,0.4,1.6,0.7,3-0.1c1.4-0.8,11.3-5.2,17-8.2c5.7-3.1,8.7-5.6,8.7-5.6L1603.6,310.6z"/>
		<path class="st3" d="M1602.7,313.1c1.6,2.5,3.5,4.1,4.3,3.6s0.1-2.9-1.4-5.4c-0.4-0.6-0.8-1.2-1.2-1.7c-1.2-1.5-2.5-2.3-3-1.9
			C1600.5,308.3,1601.1,310.7,1602.7,313.1z"/>
		<path class="st4" d="M1601.1,307.9c0.6,0.2,1.5,0.9,2.5,2c0.4,0.5,0.8,1,1.2,1.7c1.4,2.2,2.1,4.4,1.6,5.2
			c-0.9-0.2-2.4-1.6-3.7-3.6C1601.3,310.9,1600.6,308.7,1601.1,307.9z"/>
	</g>
	<polygon id="XMLID_393_" class="st5" points="1568.2,314.2 1606.2,291.3 1575.4,359.9 1561.8,368 	"/>
	<polygon id="XMLID_392_" class="st5" points="1526.8,318.8 1490.3,306.7 1480.3,312.6 1505,331.7 	"/>
	<polygon id="XMLID_391_" class="st5" points="1511.9,337.1 1531.5,325.3 1515.7,360.6 1508.7,364.8 	"/>
	<g id="XMLID_374_">
		
			<rect id="XMLID_389_" x="1617.9" y="268.7" transform="matrix(0.8599 -0.5104 0.5104 0.8599 88.9324 864.3346)" class="st8" width="2.8" height="2.8"/>
		
			<rect id="XMLID_388_" x="1613" y="271.6" transform="matrix(0.8599 -0.5105 0.5105 0.8599 86.8644 862.4)" class="st8" width="2.8" height="2.8"/>
		
			<rect id="XMLID_387_" x="1608.1" y="274.4" transform="matrix(0.8599 -0.5104 0.5104 0.8599 84.6614 860.1713)" class="st8" width="2.8" height="2.8"/>
		
			<rect id="XMLID_386_" x="1603.4" y="277.3" transform="matrix(0.8599 -0.5104 0.5104 0.8599 82.5089 858.1403)" class="st8" width="2.8" height="2.8"/>
		
			<rect id="XMLID_385_" x="1598.5" y="280.3" transform="matrix(0.8599 -0.5104 0.5104 0.8599 80.33 856.0638)" class="st8" width="2.8" height="2.8"/>
		
			<rect id="XMLID_384_" x="1593.6" y="283" transform="matrix(0.8599 -0.5104 0.5104 0.8599 78.2519 853.9672)" class="st8" width="2.8" height="2.8"/>
		
			<rect id="XMLID_383_" x="1588.9" y="285.9" transform="matrix(0.8599 -0.5105 0.5105 0.8599 76.1812 852.0961)" class="st8" width="2.8" height="2.8"/>
		
			<rect id="XMLID_382_" x="1584.1" y="288.8" transform="matrix(0.8599 -0.5104 0.5104 0.8599 73.9445 849.9064)" class="st8" width="2.8" height="2.8"/>
		
			<rect id="XMLID_381_" x="1579.2" y="291.7" transform="matrix(0.8599 -0.5104 0.5104 0.8599 71.8024 847.7918)" class="st8" width="2.8" height="2.8"/>
		
			<rect id="XMLID_380_" x="1574.4" y="294.5" transform="matrix(0.8599 -0.5105 0.5105 0.8599 69.7529 845.9036)" class="st8" width="2.8" height="2.8"/>
		
			<rect id="XMLID_379_" x="1569.6" y="297.4" transform="matrix(0.8599 -0.5104 0.5104 0.8599 67.5437 843.6962)" class="st8" width="2.8" height="2.8"/>
		
			<rect id="XMLID_378_" x="1564.7" y="300.3" transform="matrix(0.8599 -0.5104 0.5104 0.8599 65.3757 841.5998)" class="st8" width="2.8" height="2.8"/>
		
			<rect id="XMLID_377_" x="1559.9" y="303.2" transform="matrix(0.8599 -0.5104 0.5104 0.8599 63.235 839.5601)" class="st8" width="2.8" height="2.8"/>
		
			<rect id="XMLID_376_" x="1555.1" y="306" transform="matrix(0.8599 -0.5104 0.5104 0.8599 61.0942 837.5203)" class="st8" width="2.8" height="2.8"/>
		
			<rect id="XMLID_375_" x="1550.3" y="308.8" transform="matrix(0.8599 -0.5105 0.5105 0.8599 59.0846 835.5888)" class="st8" width="2.8" height="2.8"/>
	</g>
</g>
</svg>
